<?xml version="1.0" standalone="no"?>
<!DOCTYPE svg PUBLIC "-//W3C//DTD SVG 20010904//EN"
 "http://www.w3.org/TR/2001/REC-SVG-20010904/DTD/svg10.dtd">
<svg version="1.0" xmlns="http://www.w3.org/2000/svg"
 width="100px" height="100px" viewBox="0 0 1047.000000 960.000000"
 preserveAspectRatio="xMidYMid meet">

<g transform="translate(0.000000,960.000000) scale(0.100000,-0.100000)"
fill="#ffffff" stroke="none">
<path d="M3547 7742 l-877 -877 878 -878 877 -877 240 240 240 240 -638 638
-637 637 637 637 638 638 -240 240 -240 240 -878 -878z"/>
<path d="M5623 8382 l-243 -237 640 -640 640 -640 -640 -640 -640 -640 240
-240 240 -240 880 880 880 880 -877 877 -878 876 -242 -236z"/>
<path d="M2351 4238 c-10 -24 -53 -133 -96 -243 -43 -110 -102 -263 -132 -340
-30 -77 -93 -237 -138 -355 -46 -118 -123 -314 -170 -435 -178 -455 -215 -552
-215 -559 0 -3 369 -6 820 -6 451 0 820 3 820 8 0 4 -171 448 -379 987 l-378
980 -57 3 -56 3 -19 -43z m-14 -746 c108 -285 426 -1115 438 -1144 7 -17 -23
-18 -544 -18 -439 0 -551 3 -551 13 0 10 178 483 225 597 8 19 25 64 39 100
13 36 78 205 144 375 65 171 121 318 125 328 4 9 10 17 14 17 4 0 54 -121 110
-268z"/>
<path d="M3412 4263 c2 -13 16 -19 49 -23 52 -6 91 -29 116 -67 17 -25 18 -84
21 -871 l2 -845 -21 -45 c-24 -49 -78 -81 -136 -82 -23 0 -33 -5 -33 -15 0
-13 95 -15 794 -15 l794 0 6 43 c8 63 45 444 48 507 3 52 2 55 -21 55 -20 0
-28 -11 -52 -70 -109 -269 -410 -477 -726 -502 -117 -9 -169 14 -204 92 -18
38 -19 86 -19 867 0 741 2 832 16 868 19 47 57 71 124 79 32 4 46 11 48 24 3
16 -21 17 -403 17 -382 0 -406 -1 -403 -17z"/>
<path d="M5997 4273 c-3 -4 -100 -253 -217 -553 -344 -884 -407 -1046 -480
-1233 -39 -97 -70 -179 -70 -182 0 -3 370 -5 821 -5 777 0 821 1 817 18 -5 14
-504 1315 -618 1607 -22 55 -61 156 -88 225 l-48 125 -56 3 c-31 2 -58 -1 -61
-5z m48 -980 c286 -748 365 -955 365 -960 0 -2 -247 -3 -550 -3 -378 0 -550 3
-550 11 0 8 132 353 523 1367 11 28 23 52 26 52 3 0 87 -210 186 -467z"/>
<path d="M7811 4262 c-6 -11 -79 -195 -162 -408 -83 -214 -195 -501 -248 -639
-276 -707 -351 -902 -351 -908 0 -4 369 -7 821 -7 777 0 820 1 815 18 -3 9
-174 454 -380 987 l-374 970 -56 3 c-46 2 -56 0 -65 -16z m-21 -783 c96 -250
248 -646 379 -989 l59 -155 -273 -3 c-150 -1 -400 -1 -554 0 l-280 3 193 500
c105 275 230 598 276 718 56 146 86 214 91 204 5 -8 54 -133 109 -278z"/>
<path d="M3350 1852 l-25 -20 0 -235 c0 -295 -10 -277 155 -277 128 0 188 13
251 54 75 50 114 179 90 298 -17 79 -59 133 -129 166 -51 24 -72 27 -187 30
-119 4 -133 2 -155 -16z m247 -83 c56 -27 75 -65 81 -160 4 -61 0 -85 -16
-122 -26 -59 -57 -78 -137 -85 l-65 -5 0 197 0 196 47 0 c27 0 65 -9 90 -21z"/>
<path d="M5020 1850 c-19 -19 -20 -33 -20 -254 0 -208 2 -236 18 -255 16 -21
24 -22 187 -19 l170 3 9 28 c18 50 -7 61 -139 65 l-115 4 0 64 0 64 100 0 c87
0 103 3 120 20 24 24 24 29 4 58 -14 20 -23 22 -120 22 l-105 0 3 63 3 62 109
3 c115 3 136 10 136 46 0 42 -16 46 -182 46 -145 0 -160 -2 -178 -20z"/>
<path d="M6483 1844 c-16 -25 -15 -31 36 -191 98 -309 112 -333 198 -333 91 0
105 21 194 303 59 189 61 197 45 222 -21 31 -67 34 -94 5 -10 -11 -45 -108
-77 -220 -33 -110 -62 -197 -66 -193 -4 5 -30 87 -59 183 -28 96 -56 188 -62
203 -20 53 -86 65 -115 21z"/>
</g>
</svg>
